<svg version="1.1" xmlns="http://www.w3.org/2000/svg" xmlns:xlink="http://www.w3.org/1999/xlink" width="814.9013671875" height="983"><defs/><g><text fill="#eeeeee" stroke="none" font-family="Arial" font-size="24px" font-style="normal" font-weight="normal" text-decoration="none" x="0" y="0"></text><text fill="#eeeeee" stroke="none" font-family="Arial" font-size="24px" font-style="normal" font-weight="normal" text-decoration="none" x="0" y="30"></text><text fill="#eeeeee" stroke="none" font-family="Arial" font-size="24px" font-style="normal" font-weight="normal" text-decoration="none" x="0" y="60"></text><text fill="#eeeeee" stroke="none" font-family="Arial" font-size="24px" font-style="normal" font-weight="normal" text-decoration="none" x="0" y="90"></text><text fill="#eeeeee" stroke="none" font-family="Arial" font-size="24px" font-style="normal" font-weight="normal" text-decoration="none" x="0" y="120"></text><text fill="#eeeeee" stroke="none" font-family="Arial" font-size="24px" font-style="normal" font-weight="normal" text-decoration="none" x="0" y="150"></text><text fill="#eeeeee" stroke="none" font-family="Arial" font-size="24px" font-style="normal" font-weight="normal" text-decoration="none" x="0" y="180"></text><text fill="#eeeeee" stroke="none" font-family="Arial" font-size="24px" font-style="normal" font-weight="normal" text-decoration="none" x="0" y="210"></text><text fill="#eeeeee" stroke="none" font-family="Arial" font-size="24px" font-style="normal" font-weight="normal" text-decoration="none" x="0" y="240"></text><text fill="#eeeeee" stroke="none" font-family="Arial" font-size="24px" font-style="normal" font-weight="normal" text-decoration="none" x="0" y="270"></text><text fill="#eeeeee" stroke="none" font-family="Arial" font-size="24px" font-style="normal" font-weight="normal" text-decoration="none" x="0" y="300"></text><text fill="#eeeeee" stroke="none" font-family="Arial" font-size="24px" font-style="normal" font-weight="normal" text-decoration="none" x="0" y="330"></text><text fill="#eeeeee" stroke="none" font-family="Arial" font-size="24px" font-style="normal" font-weight="normal" text-decoration="none" x="0" y="360"></text><text fill="#eeeeee" stroke="none" font-family="Arial" font-size="24px" font-style="normal" font-weight="normal" text-decoration="none" x="0" y="390"></text><text fill="#eeeeee" stroke="none" font-family="Arial" font-size="24px" font-style="normal" font-weight="normal" text-decoration="none" x="0" y="420"></text><text fill="#eeeeee" stroke="none" font-family="Arial" font-size="24px" font-style="normal" font-weight="normal" text-decoration="none" x="0" y="450"></text><text fill="#eeeeee" stroke="none" font-family="Arial" font-size="24px" font-style="normal" font-weight="normal" text-decoration="none" x="0" y="480"></text><text fill="#eeeeee" stroke="none" font-family="Arial" font-size="24px" font-style="normal" font-weight="normal" text-decoration="none" x="0" y="510"></text><text fill="#eeeeee" stroke="none" font-family="Arial" font-size="24px" font-style="normal" font-weight="normal" text-decoration="none" x="0" y="540"></text><text fill="#eeeeee" stroke="none" font-family="Arial" font-size="24px" font-style="normal" font-weight="normal" text-decoration="none" x="0" y="570"></text><text fill="#eeeeee" stroke="none" font-family="Arial" font-size="24px" font-style="normal" font-weight="normal" text-decoration="none" x="0" y="600"></text><text fill="#eeeeee" stroke="none" font-family="Arial" font-size="24px" font-style="normal" font-weight="normal" text-decoration="none" x="0" y="630"></text><text fill="#eeeeee" stroke="none" font-family="Arial" font-size="24px" font-style="normal" font-weight="normal" text-decoration="none" x="0" y="660"></text><text fill="#eeeeee" stroke="none" font-family="Arial" font-size="24px" font-style="normal" font-weight="normal" text-decoration="none" x="0" y="690"></text><text fill="#eeeeee" stroke="none" font-family="Arial" font-size="24px" font-style="normal" font-weight="normal" text-decoration="none" x="0" y="720"></text><text fill="#eeeeee" stroke="none" font-family="Arial" font-size="24px" font-style="normal" font-weight="normal" text-decoration="none" x="0" y="750"></text><text fill="#eeeeee" stroke="none" font-family="Arial" font-size="24px" font-style="normal" font-weight="normal" text-decoration="none" x="0" y="780"></text><text fill="#eeeeee" stroke="none" font-family="Arial" font-size="24px" font-style="normal" font-weight="normal" text-decoration="none" x="0" y="810"></text><text fill="#eeeeee" stroke="none" font-family="Arial" font-size="24px" font-style="normal" font-weight="normal" text-decoration="none" x="0" y="840"></text><text fill="#eeeeee" stroke="none" font-family="Arial" font-size="24px" font-style="normal" font-weight="normal" text-decoration="none" x="0" y="870"></text><text fill="#eeeeee" stroke="none" font-family="Arial" font-size="24px" font-style="normal" font-weight="normal" text-decoration="none" x="0" y="900"></text><text fill="#eeeeee" stroke="none" font-family="Arial" font-size="24px" font-style="normal" font-weight="normal" text-decoration="none" x="0" y="930"></text><text fill="#eeeeee" stroke="none" font-family="Arial" font-size="24px" font-style="normal" font-weight="normal" text-decoration="none" x="0" y="960"></text><text fill="#eeeeee" stroke="none" font-family="Arial" font-size="24px" font-style="normal" font-weight="normal" text-decoration="none" x="200" y="0"></text><text fill="#eeeeee" stroke="none" font-family="Arial" font-size="24px" font-style="normal" font-weight="normal" text-decoration="none" x="200" y="30"></text><text fill="#eeeeee" stroke="none" font-family="Arial" font-size="24px" font-style="normal" font-weight="normal" text-decoration="none" x="200" y="60"></text><text fill="#eeeeee" stroke="none" font-family="Arial" font-size="24px" font-style="normal" font-weight="normal" text-decoration="none" x="200" y="90"></text><text fill="#eeeeee" stroke="none" font-family="Arial" font-size="24px" font-style="normal" font-weight="normal" text-decoration="none" x="200" y="120"></text><text fill="#eeeeee" stroke="none" font-family="Arial" font-size="24px" font-style="normal" font-weight="normal" text-decoration="none" x="200" y="150"></text><text fill="#eeeeee" stroke="none" font-family="Arial" font-size="24px" font-style="normal" font-weight="normal" text-decoration="none" x="200" y="180"></text><text fill="#eeeeee" stroke="none" font-family="Arial" font-size="24px" font-style="normal" font-weight="normal" text-decoration="none" x="200" y="210"></text><text fill="#eeeeee" stroke="none" font-family="Arial" font-size="24px" font-style="normal" font-weight="normal" text-decoration="none" x="200" y="240"></text><text fill="#eeeeee" stroke="none" font-family="Arial" font-size="24px" font-style="normal" font-weight="normal" text-decoration="none" x="200" y="270"></text><text fill="#eeeeee" stroke="none" font-family="Arial" font-size="24px" font-style="normal" font-weight="normal" text-decoration="none" x="200" y="300"></text><text fill="#eeeeee" stroke="none" font-family="Arial" font-size="24px" font-style="normal" font-weight="normal" text-decoration="none" x="200" y="330"></text><text fill="#eeeeee" stroke="none" font-family="Arial" font-size="24px" font-style="normal" font-weight="normal" text-decoration="none" x="200" y="360"></text><text fill="#eeeeee" stroke="none" font-family="Arial" font-size="24px" font-style="normal" font-weight="normal" text-decoration="none" x="200" y="390"></text><text fill="#eeeeee" stroke="none" font-family="Arial" font-size="24px" font-style="normal" font-weight="normal" text-decoration="none" x="200" y="420"></text><text fill="#eeeeee" stroke="none" font-family="Arial" font-size="24px" font-style="normal" font-weight="normal" text-decoration="none" x="200" y="450"></text><text fill="#eeeeee" stroke="none" font-family="Arial" font-size="24px" font-style="normal" font-weight="normal" text-decoration="none" x="200" y="480"></text><text fill="#eeeeee" stroke="none" font-family="Arial" font-size="24px" font-style="normal" font-weight="normal" text-decoration="none" x="200" y="510"></text><text fill="#eeeeee" stroke="none" font-family="Arial" font-size="24px" font-style="normal" font-weight="normal" text-decoration="none" x="200" y="540"></text><text fill="#eeeeee" stroke="none" font-family="Arial" font-size="24px" font-style="normal" font-weight="normal" text-decoration="none" x="200" y="570"></text><text fill="#eeeeee" stroke="none" font-family="Arial" font-size="24px" font-style="normal" font-weight="normal" text-decoration="none" x="200" y="600"></text><text fill="#eeeeee" stroke="none" font-family="Arial" font-size="24px" font-style="normal" font-weight="normal" text-decoration="none" x="200" y="630"></text><text fill="#eeeeee" stroke="none" font-family="Arial" font-size="24px" font-style="normal" font-weight="normal" text-decoration="none" x="200" y="660"></text><text fill="#eeeeee" stroke="none" font-family="Arial" font-size="24px" font-style="normal" font-weight="normal" text-decoration="none" x="200" y="690"></text><text fill="#eeeeee" stroke="none" font-family="Arial" font-size="24px" font-style="normal" font-weight="normal" text-decoration="none" x="200" y="720"></text><text fill="#eeeeee" stroke="none" font-family="Arial" font-size="24px" font-style="normal" font-weight="normal" text-decoration="none" x="200" y="750"></text><text fill="#eeeeee" stroke="none" font-family="Arial" font-size="24px" font-style="normal" font-weight="normal" text-decoration="none" x="200" y="780"></text><text fill="#eeeeee" stroke="none" font-family="Arial" font-size="24px" font-style="normal" font-weight="normal" text-decoration="none" x="200" y="810"></text><text fill="#eeeeee" stroke="none" font-family="Arial" font-size="24px" font-style="normal" font-weight="normal" text-decoration="none" x="200" y="840"></text><text fill="#eeeeee" stroke="none" font-family="Arial" font-size="24px" font-style="normal" font-weight="normal" text-decoration="none" x="200" y="870"></text><text fill="#eeeeee" stroke="none" font-family="Arial" font-size="24px" font-style="normal" font-weight="normal" text-decoration="none" x="200" y="900"></text><text fill="#eeeeee" stroke="none" font-family="Arial" font-size="24px" font-style="normal" font-weight="normal" text-decoration="none" x="200" y="930"></text><text fill="#eeeeee" stroke="none" font-family="Arial" font-size="24px" font-style="normal" font-weight="normal" text-decoration="none" x="200" y="960"></text><text fill="#eeeeee" stroke="none" font-family="Arial" font-size="24px" font-style="normal" font-weight="normal" text-decoration="none" x="400" y="0"></text><text fill="#eeeeee" stroke="none" font-family="Arial" font-size="24px" font-style="normal" font-weight="normal" text-decoration="none" x="400" y="30"></text><text fill="#eeeeee" stroke="none" font-family="Arial" font-size="24px" font-style="normal" font-weight="normal" text-decoration="none" x="400" y="60"></text><text fill="#eeeeee" stroke="none" font-family="Arial" font-size="24px" font-style="normal" font-weight="normal" text-decoration="none" x="400" y="90"></text><text fill="#eeeeee" stroke="none" font-family="Arial" font-size="24px" font-style="normal" font-weight="normal" text-decoration="none" x="400" y="120"></text><text fill="#eeeeee" stroke="none" font-family="Arial" font-size="24px" font-style="normal" font-weight="normal" text-decoration="none" x="400" y="150"></text><text fill="#eeeeee" stroke="none" font-family="Arial" font-size="24px" font-style="normal" font-weight="normal" text-decoration="none" x="400" y="180"></text><text fill="#eeeeee" stroke="none" font-family="Arial" font-size="24px" font-style="normal" font-weight="normal" text-decoration="none" x="400" y="210"></text><text fill="#eeeeee" stroke="none" font-family="Arial" font-size="24px" font-style="normal" font-weight="normal" text-decoration="none" x="400" y="240"></text><text fill="#eeeeee" stroke="none" font-family="Arial" font-size="24px" font-style="normal" font-weight="normal" text-decoration="none" x="400" y="270"></text><text fill="#eeeeee" stroke="none" font-family="Arial" font-size="24px" font-style="normal" font-weight="normal" text-decoration="none" x="400" y="300"></text><text fill="#eeeeee" stroke="none" font-family="Arial" font-size="24px" font-style="normal" font-weight="normal" text-decoration="none" x="400" y="330"></text><text fill="#eeeeee" stroke="none" font-family="Arial" font-size="24px" font-style="normal" font-weight="normal" text-decoration="none" x="400" y="360"></text><text fill="#eeeeee" stroke="none" font-family="Arial" font-size="24px" font-style="normal" font-weight="normal" text-decoration="none" x="400" y="390"></text><text fill="#eeeeee" stroke="none" font-family="Arial" font-size="24px" font-style="normal" font-weight="normal" text-decoration="none" x="400" y="420"></text><text fill="#eeeeee" stroke="none" font-family="Arial" font-size="24px" font-style="normal" font-weight="normal" text-decoration="none" x="400" y="450"></text><text fill="#eeeeee" stroke="none" font-family="Arial" font-size="24px" font-style="normal" font-weight="normal" text-decoration="none" x="400" y="480"></text><text fill="#eeeeee" stroke="none" font-family="Arial" font-size="24px" font-style="normal" font-weight="normal" text-decoration="none" x="400" y="510"></text><text fill="#eeeeee" stroke="none" font-family="Arial" font-size="24px" font-style="normal" font-weight="normal" text-decoration="none" x="400" y="540"></text><text fill="#eeeeee" stroke="none" font-family="Arial" font-size="24px" font-style="normal" font-weight="normal" text-decoration="none" x="400" y="570"></text><text fill="#eeeeee" stroke="none" font-family="Arial" font-size="24px" font-style="normal" font-weight="normal" text-decoration="none" x="400" y="600"></text><text fill="#eeeeee" stroke="none" font-family="Arial" font-size="24px" font-style="normal" font-weight="normal" text-decoration="none" x="400" y="630"></text><text fill="#eeeeee" stroke="none" font-family="Arial" font-size="24px" font-style="normal" font-weight="normal" text-decoration="none" x="400" y="660"></text><text fill="#eeeeee" stroke="none" font-family="Arial" font-size="24px" font-style="normal" font-weight="normal" text-decoration="none" x="400" y="690"></text><text fill="#eeeeee" stroke="none" font-family="Arial" font-size="24px" font-style="normal" font-weight="normal" text-decoration="none" x="400" y="720"></text><text fill="#eeeeee" stroke="none" font-family="Arial" font-size="24px" font-style="normal" font-weight="normal" text-decoration="none" x="400" y="750"></text><text fill="#eeeeee" stroke="none" font-family="Arial" font-size="24px" font-style="normal" font-weight="normal" text-decoration="none" x="400" y="780"></text><text fill="#eeeeee" stroke="none" font-family="Arial" font-size="24px" font-style="normal" font-weight="normal" text-decoration="none" x="400" y="810"></text><text fill="#eeeeee" stroke="none" font-family="Arial" font-size="24px" font-style="normal" font-weight="normal" text-decoration="none" x="400" y="840"></text><text fill="#eeeeee" stroke="none" font-family="Arial" font-size="24px" font-style="normal" font-weight="normal" text-decoration="none" x="400" y="870"></text><text fill="#eeeeee" stroke="none" font-family="Arial" font-size="24px" font-style="normal" font-weight="normal" text-decoration="none" x="400" y="900"></text><text fill="#eeeeee" stroke="none" font-family="Arial" font-size="24px" font-style="normal" font-weight="normal" text-decoration="none" x="400" y="930"></text><text fill="#eeeeee" stroke="none" font-family="Arial" font-size="24px" font-style="normal" font-weight="normal" text-decoration="none" x="400" y="960"></text><text fill="#eeeeee" stroke="none" font-family="Arial" font-size="24px" font-style="normal" font-weight="normal" text-decoration="none" x="600" y="0"></text><text fill="#eeeeee" stroke="none" font-family="Arial" font-size="24px" font-style="normal" font-weight="normal" text-decoration="none" x="600" y="30"></text><text fill="#eeeeee" stroke="none" font-family="Arial" font-size="24px" font-style="normal" font-weight="normal" text-decoration="none" x="600" y="60"></text><text fill="#eeeeee" stroke="none" font-family="Arial" font-size="24px" font-style="normal" font-weight="normal" text-decoration="none" x="600" y="90"></text><text fill="#eeeeee" stroke="none" font-family="Arial" font-size="24px" font-style="normal" font-weight="normal" text-decoration="none" x="600" y="120"></text><text fill="#eeeeee" stroke="none" font-family="Arial" font-size="24px" font-style="normal" font-weight="normal" text-decoration="none" x="600" y="150"></text><text fill="#eeeeee" stroke="none" font-family="Arial" font-size="24px" font-style="normal" font-weight="normal" text-decoration="none" x="600" y="180"></text><text fill="#eeeeee" stroke="none" font-family="Arial" font-size="24px" font-style="normal" font-weight="normal" text-decoration="none" x="600" y="210"></text><text fill="#eeeeee" stroke="none" font-family="Arial" font-size="24px" font-style="normal" font-weight="normal" text-decoration="none" x="600" y="240"></text><text fill="#eeeeee" stroke="none" font-family="Arial" font-size="24px" font-style="normal" font-weight="normal" text-decoration="none" x="600" y="270"></text><text fill="#eeeeee" stroke="none" font-family="Arial" font-size="24px" font-style="normal" font-weight="normal" text-decoration="none" x="600" y="300"></text><text fill="#eeeeee" stroke="none" font-family="Arial" font-size="24px" font-style="normal" font-weight="normal" text-decoration="none" x="600" y="330"></text><text fill="#eeeeee" stroke="none" font-family="Arial" font-size="24px" font-style="normal" font-weight="normal" text-decoration="none" x="600" y="360"></text><text fill="#eeeeee" stroke="none" font-family="Arial" font-size="24px" font-style="normal" font-weight="normal" text-decoration="none" x="600" y="390"></text><text fill="#eeeeee" stroke="none" font-family="Arial" font-size="24px" font-style="normal" font-weight="normal" text-decoration="none" x="600" y="420"></text><text fill="#eeeeee" stroke="none" font-family="Arial" font-size="24px" font-style="normal" font-weight="normal" text-decoration="none" x="600" y="450"></text><text fill="#eeeeee" stroke="none" font-family="Arial" font-size="24px" font-style="normal" font-weight="normal" text-decoration="none" x="600" y="480"></text><text fill="#eeeeee" stroke="none" font-family="Arial" font-size="24px" font-style="normal" font-weight="normal" text-decoration="none" x="600" y="510"></text><text fill="#eeeeee" stroke="none" font-family="Arial" font-size="24px" font-style="normal" font-weight="normal" text-decoration="none" x="600" y="540"></text><text fill="#eeeeee" stroke="none" font-family="Arial" font-size="24px" font-style="normal" font-weight="normal" text-decoration="none" x="600" y="570"></text><text fill="#eeeeee" stroke="none" font-family="Arial" font-size="24px" font-style="normal" font-weight="normal" text-decoration="none" x="600" y="600"></text><text fill="#eeeeee" stroke="none" font-family="Arial" font-size="24px" font-style="normal" font-weight="normal" text-decoration="none" x="600" y="630"></text><text fill="#eeeeee" stroke="none" font-family="Arial" font-size="24px" font-style="normal" font-weight="normal" text-decoration="none" x="600" y="660"></text><text fill="#eeeeee" stroke="none" font-family="Arial" font-size="24px" font-style="normal" font-weight="normal" text-decoration="none" x="600" y="690"></text><text fill="#eeeeee" stroke="none" font-family="Arial" font-size="24px" font-style="normal" font-weight="normal" text-decoration="none" x="600" y="720"></text><text fill="#eeeeee" stroke="none" font-family="Arial" font-size="24px" font-style="normal" font-weight="normal" text-decoration="none" x="600" y="750"></text><text fill="#eeeeee" stroke="none" font-family="Arial" font-size="24px" font-style="normal" font-weight="normal" text-decoration="none" x="600" y="780"></text><text fill="#eeeeee" stroke="none" font-family="Arial" font-size="24px" font-style="normal" font-weight="normal" text-decoration="none" x="600" y="810"></text><text fill="#eeeeee" stroke="none" font-family="Arial" font-size="24px" font-style="normal" font-weight="normal" text-decoration="none" x="600" y="840"></text><text fill="#eeeeee" stroke="none" font-family="Arial" font-size="24px" font-style="normal" font-weight="normal" text-decoration="none" x="600" y="870"></text><text fill="#eeeeee" stroke="none" font-family="Arial" font-size="24px" font-style="normal" font-weight="normal" text-decoration="none" x="600" y="900"></text><text fill="#eeeeee" stroke="none" font-family="Arial" font-size="24px" font-style="normal" font-weight="normal" text-decoration="none" x="600" y="930"></text><text fill="#eeeeee" stroke="none" font-family="Arial" font-size="24px" font-style="normal" font-weight="normal" text-decoration="none" x="600" y="960"></text><text fill="#eeeeee" stroke="none" font-family="Arial" font-size="24px" font-style="normal" font-weight="normal" text-decoration="none" x="800" y="0"></text><text fill="#eeeeee" stroke="none" font-family="Arial" font-size="24px" font-style="normal" font-weight="normal" text-decoration="none" x="800" y="30"></text><text fill="#eeeeee" stroke="none" font-family="Arial" font-size="24px" font-style="normal" font-weight="normal" text-decoration="none" x="800" y="60"></text><text fill="#eeeeee" stroke="none" font-family="Arial" font-size="24px" font-style="normal" font-weight="normal" text-decoration="none" x="800" y="90"></text><text fill="#eeeeee" stroke="none" font-family="Arial" font-size="24px" font-style="normal" font-weight="normal" text-decoration="none" x="800" y="120"></text><text fill="#eeeeee" stroke="none" font-family="Arial" font-size="24px" font-style="normal" font-weight="normal" text-decoration="none" x="800" y="150"></text><text fill="#eeeeee" stroke="none" font-family="Arial" font-size="24px" font-style="normal" font-weight="normal" text-decoration="none" x="800" y="180"></text><text fill="#eeeeee" stroke="none" font-family="Arial" font-size="24px" font-style="normal" font-weight="normal" text-decoration="none" x="800" y="210"></text><text fill="#eeeeee" stroke="none" font-family="Arial" font-size="24px" font-style="normal" font-weight="normal" text-decoration="none" x="800" y="240"></text><text fill="#eeeeee" stroke="none" font-family="Arial" font-size="24px" font-style="normal" font-weight="normal" text-decoration="none" x="800" y="270"></text><text fill="#eeeeee" stroke="none" font-family="Arial" font-size="24px" font-style="normal" font-weight="normal" text-decoration="none" x="800" y="300"></text><text fill="#eeeeee" stroke="none" font-family="Arial" font-size="24px" font-style="normal" font-weight="normal" text-decoration="none" x="800" y="330"></text><text fill="#eeeeee" stroke="none" font-family="Arial" font-size="24px" font-style="normal" font-weight="normal" text-decoration="none" x="800" y="360"></text><text fill="#eeeeee" stroke="none" font-family="Arial" font-size="24px" font-style="normal" font-weight="normal" text-decoration="none" x="800" y="390"></text><text fill="#eeeeee" stroke="none" font-family="Arial" font-size="24px" font-style="normal" font-weight="normal" text-decoration="none" x="800" y="420"></text><text fill="#eeeeee" stroke="none" font-family="Arial" font-size="24px" font-style="normal" font-weight="normal" text-decoration="none" x="800" y="450"></text><text fill="#eeeeee" stroke="none" font-family="Arial" font-size="24px" font-style="normal" font-weight="normal" text-decoration="none" x="800" y="480"></text><text fill="#eeeeee" stroke="none" font-family="Arial" font-size="24px" font-style="normal" font-weight="normal" text-decoration="none" x="800" y="510"></text><text fill="#eeeeee" stroke="none" font-family="Arial" font-size="24px" font-style="normal" font-weight="normal" text-decoration="none" x="800" y="540"></text><text fill="#eeeeee" stroke="none" font-family="Arial" font-size="24px" font-style="normal" font-weight="normal" text-decoration="none" x="800" y="570"></text><text fill="#eeeeee" stroke="none" font-family="Arial" font-size="24px" font-style="normal" font-weight="normal" text-decoration="none" x="800" y="600"></text><text fill="#eeeeee" stroke="none" font-family="Arial" font-size="24px" font-style="normal" font-weight="normal" text-decoration="none" x="800" y="630"></text><text fill="#eeeeee" stroke="none" font-family="Arial" font-size="24px" font-style="normal" font-weight="normal" text-decoration="none" x="800" y="660"></text><text fill="#eeeeee" stroke="none" font-family="Arial" font-size="24px" font-style="normal" font-weight="normal" text-decoration="none" x="800" y="690"></text><text fill="#eeeeee" stroke="none" font-family="Arial" font-size="24px" font-style="normal" font-weight="normal" text-decoration="none" x="800" y="720"></text><text fill="#eeeeee" stroke="none" font-family="Arial" font-size="24px" font-style="normal" font-weight="normal" text-decoration="none" x="800" y="750"></text><text fill="#eeeeee" stroke="none" font-family="Arial" font-size="24px" font-style="normal" font-weight="normal" text-decoration="none" x="800" y="780"></text><text fill="#eeeeee" stroke="none" font-family="Arial" font-size="24px" font-style="normal" font-weight="normal" text-decoration="none" x="800" y="810"></text><text fill="#eeeeee" stroke="none" font-family="Arial" font-size="24px" font-style="normal" font-weight="normal" text-decoration="none" x="800" y="840"></text><text fill="#eeeeee" stroke="none" font-family="Arial" font-size="24px" font-style="normal" font-weight="normal" text-decoration="none" x="800" y="870"></text><text fill="#eeeeee" stroke="none" font-family="Arial" font-size="24px" font-style="normal" font-weight="normal" text-decoration="none" x="800" y="900"></text><text fill="#eeeeee" stroke="none" font-family="Arial" font-size="24px" font-style="normal" font-weight="normal" text-decoration="none" x="800" y="930"></text><text fill="#eeeeee" stroke="none" font-family="Arial" font-size="24px" font-style="normal" font-weight="normal" text-decoration="none" x="800" y="960"></text><g transform="translate(5,5) scale(1,1)"><path fill="none" stroke="#000000" d="M 5 5 L 699 5 L 699 968 L 5 968 L 5 5" stroke-miterlimit="10"/></g><g transform="translate(5,5) scale(1,1)"><path fill="#ffffff" stroke="none" d="M 5 5 L 5 27 L 169.1416015625 27 L 180.1416015625 16 L 180.1416015625 5 L 5 5"/></g><g transform="translate(5,5) scale(1,1)"><path fill="none" stroke="#000000" d="M 5 5 L 5 27 L 169.1416015625 27 L 180.1416015625 16 L 180.1416015625 5 L 5 5 L 5 5" stroke-miterlimit="10"/></g><g transform="translate(5,5) scale(1,1)"><g><path fill="none" stroke="none"/><text fill="#000000" stroke="none" font-family="Arial" font-size="13px" font-style="normal" font-weight="normal" text-decoration="none" x="75.97900390625" y="22.5">Ajouter Section</text></g></g><g transform="translate(5,5) scale(1,1)"><g><path fill="none" stroke="none"/><text fill="#000000" stroke="none" font-family="Arial" font-size="13px" font-style="normal" font-weight="bold" text-decoration="none" x="10" y="22.5">interaction</text></g></g><g transform="translate(5,5) scale(1,1)"><path fill="#ffffff" stroke="none" d="M 108.4422469815341 47.3 C 108.4422469815341 43.82060576 111.32064870371592 41 114.871337890625 41 C 118.42202707753408 41 121.3004287997159 43.82060576 121.3004287997159 47.3 C 121.3004287997159 50.779394239999995 118.42202707753408 53.6 114.871337890625 53.6 C 111.32064870371592 53.6 108.4422469815341 50.779394239999995 108.4422469815341 47.3 Z"/></g><g transform="translate(5,5) scale(1,1)"><path fill="none" stroke="#000000" d="M 108.4422469815341 47.3 C 108.4422469815341 43.82060576 111.32064870371592 41 114.871337890625 41 C 118.42202707753408 41 121.3004287997159 43.82060576 121.3004287997159 47.3 C 121.3004287997159 50.779394239999995 118.42202707753408 53.6 114.871337890625 53.6 C 111.32064870371592 53.6 108.4422469815341 50.779394239999995 108.4422469815341 47.3 Z" stroke-miterlimit="10"/></g><g transform="translate(5,5) scale(1,1)"><path fill="none" stroke="#000000" d="M 114.871337890625 53.6 L 114.871337890625 66.4" stroke-miterlimit="10"/></g><g transform="translate(5,5) scale(1,1)"><path fill="none" stroke="#000000" d="M 108.06406516335227 58.4 L 121.67861061789773 58.4" stroke-miterlimit="10"/></g><g transform="translate(5,5) scale(1,1)"><path fill="none" stroke="#000000" d="M 114.871337890625 66.4 L 105.41679243607955 79" stroke-miterlimit="10"/></g><g transform="translate(5,5) scale(1,1)"><path fill="none" stroke="#000000" d="M 114.871337890625 66.4 L 124.32588334517045 79" stroke-miterlimit="10"/></g><g transform="translate(5,5) scale(1,1)"><g><path fill="none" stroke="none"/><text fill="#000000" stroke="none" font-family="Arial" font-size="13px" font-style="normal" font-weight="normal" text-decoration="none" x="114.871337890625" y="97.5"></text></g></g><g transform="translate(5,5) scale(1,1)"><g><path fill="none" stroke="none"/><text fill="#000000" stroke="none" font-family="Arial" font-size="13px" font-style="normal" font-weight="bold" text-decoration="none" x="78.734130859375" y="112.5">: Enseignant</text></g></g><g transform="translate(5,5) scale(1,1)"><path fill="none" stroke="#000000" d="M 115.5 118 L 115.5 960" stroke-miterlimit="10" stroke-dasharray="3"/></g><g transform="translate(5,5) scale(1,1)"><rect fill="#C0C0C0" stroke="none" x="463" y="47" width="146.8671875" height="39" opacity="0.2"/></g><g transform="translate(5,5) scale(1,1)"><rect fill="#ffffff" stroke="none" x="456" y="40" width="146.8671875" height="39"/></g><g transform="translate(5,5) scale(1,1)"><path fill="none" stroke="#000000" d="M 456 40 L 602.8671875 40 L 602.8671875 79 L 456 79 L 456 40 Z Z" stroke-miterlimit="10"/></g><g transform="translate(5,5) scale(1,1)"><g><path fill="none" stroke="none"/><text fill="#000000" stroke="none" font-family="Arial" font-size="13px" font-style="normal" font-weight="bold" text-decoration="none" x="467.6708984375" y="59.5">AMC ENSEA System</text></g></g><g transform="translate(5,5) scale(1,1)"><path fill="none" stroke="#000000" d="M 530.5 80 L 530.5 960" stroke-miterlimit="10" stroke-dasharray="3"/></g><g transform="translate(5,5) scale(1,1)"><path fill="#ffffff" stroke="none" d="M 440.800537109375 80 L 618.199462890625 80 Q 628.199462890625 80 628.199462890625 90 L 628.199462890625 89 Q 628.199462890625 99 618.199462890625 99 L 440.800537109375 99 Q 430.800537109375 99 430.800537109375 89 L 430.800537109375 90 Q 430.800537109375 80 440.800537109375 80 Z"/></g><g transform="translate(5,5) scale(1,1)"><path fill="none" stroke="#000000" d="M 440.800537109375 80 L 618.199462890625 80 Q 628.199462890625 80 628.199462890625 90 L 628.199462890625 89 Q 628.199462890625 99 618.199462890625 99 L 440.800537109375 99 Q 430.800537109375 99 430.800537109375 89 L 430.800537109375 90 Q 430.800537109375 80 440.800537109375 80 Z" stroke-miterlimit="10"/></g><g transform="translate(5,5) scale(1,1)"><g><path fill="none" stroke="none"/><text fill="#000000" stroke="none" font-family="Arial" font-size="13px" font-style="normal" font-weight="normal" text-decoration="none" x="438.4365234375" y="96">{Bouton Ajouter Section Cliqué}</text></g></g><g transform="translate(5,5) scale(1,1)"><path fill="none" stroke="#000000" d="M 96 240 L 559 240 L 559 664 L 96 664 L 96 240" stroke-miterlimit="10"/></g><g transform="translate(5,5) scale(1,1)"><path fill="#ffffff" stroke="none" d="M 96 240 L 96 262 L 216.787109375 262 L 227.787109375 251 L 227.787109375 240 L 96 240"/></g><g transform="translate(5,5) scale(1,1)"><path fill="none" stroke="#000000" d="M 96 240 L 96 262 L 216.787109375 262 L 227.787109375 251 L 227.787109375 240 L 96 240 L 96 240" stroke-miterlimit="10"/></g><g transform="translate(5,5) scale(1,1)"><g><path fill="none" stroke="none"/><text fill="#000000" stroke="none" font-family="Arial" font-size="13px" font-style="normal" font-weight="normal" text-decoration="none" x="120.72998046875" y="257.5">Type de section</text></g></g><g transform="translate(5,5) scale(1,1)"><g><path fill="none" stroke="none"/><text fill="#000000" stroke="none" font-family="Arial" font-size="13px" font-style="normal" font-weight="bold" text-decoration="none" x="101" y="257.5">alt</text></g></g><g transform="translate(5,5) scale(1,1)"><g><path fill="none" stroke="none"/><text fill="#000000" stroke="none" font-family="Arial" font-size="13px" font-style="normal" font-weight="normal" text-decoration="none" x="115.5" y="290.5">[Type == QCU]</text></g></g><g transform="translate(5,5) scale(1,1)"><path fill="none" stroke="#000000" d="M 96 369 L 559 369" stroke-miterlimit="10" stroke-dasharray="10,3"/></g><g transform="translate(5,5) scale(1,1)"><g><path fill="none" stroke="none"/><text fill="#000000" stroke="none" font-family="Arial" font-size="13px" font-style="normal" font-weight="normal" text-decoration="none" x="115.5" y="396.5">[Type == QCM]</text></g></g><g transform="translate(5,5) scale(1,1)"><path fill="none" stroke="#000000" d="M 96 473 L 559 473" stroke-miterlimit="10" stroke-dasharray="10,3"/></g><g transform="translate(5,5) scale(1,1)"><g><path fill="none" stroke="none"/><text fill="#000000" stroke="none" font-family="Arial" font-size="13px" font-style="normal" font-weight="normal" text-decoration="none" x="115.5" y="500.5">[Type == Question Libre]</text></g></g><g transform="translate(5,5) scale(1,1)"><path fill="none" stroke="#000000" d="M 96 577 L 559 577" stroke-miterlimit="10" stroke-dasharray="10,3"/></g><g transform="translate(5,5) scale(1,1)"><g><path fill="none" stroke="none"/><text fill="#000000" stroke="none" font-family="Arial" font-size="13px" font-style="normal" font-weight="normal" text-decoration="none" x="115.5" y="604.5">[Type == Description]</text></g></g><g transform="translate(5,5) scale(1,1)"><path fill="none" stroke="#000000" d="M 96 688 L 559 688 L 559 952 L 96 952 L 96 688" stroke-miterlimit="10"/></g><g transform="translate(5,5) scale(1,1)"><path fill="#ffffff" stroke="none" d="M 96 688 L 96 710 L 268.0888671875 710 L 279.0888671875 699 L 279.0888671875 688 L 96 688"/></g><g transform="translate(5,5) scale(1,1)"><path fill="none" stroke="#000000" d="M 96 688 L 96 710 L 268.0888671875 710 L 279.0888671875 699 L 279.0888671875 688 L 96 688 L 96 688" stroke-miterlimit="10"/></g><g transform="translate(5,5) scale(1,1)"><g><path fill="none" stroke="none"/><text fill="#000000" stroke="none" font-family="Arial" font-size="13px" font-style="normal" font-weight="normal" text-decoration="none" x="120.72998046875" y="705.5">Finalisation ajout section</text></g></g><g transform="translate(5,5) scale(1,1)"><g><path fill="none" stroke="none"/><text fill="#000000" stroke="none" font-family="Arial" font-size="13px" font-style="normal" font-weight="bold" text-decoration="none" x="101" y="705.5">alt</text></g></g><g transform="translate(5,5) scale(1,1)"><g><path fill="none" stroke="none"/><text fill="#000000" stroke="none" font-family="Arial" font-size="13px" font-style="normal" font-weight="normal" text-decoration="none" x="115.5" y="738.5">[Tout va bien]</text></g></g><g transform="translate(5,5) scale(1,1)"><path fill="none" stroke="#000000" d="M 96 833 L 559 833" stroke-miterlimit="10" stroke-dasharray="10,3"/></g><g transform="translate(5,5) scale(1,1)"><g><path fill="none" stroke="none"/><text fill="#000000" stroke="none" font-family="Arial" font-size="13px" font-style="normal" font-weight="normal" text-decoration="none" x="115.5" y="860.5">[Annuler l'ajout]</text></g></g><g transform="translate(5,5) scale(1,1)"><path fill="none" stroke="#000000" d="M 530 120 L 115 120" stroke-miterlimit="10" stroke-dasharray="3"/></g><g transform="translate(5,5) scale(1,1)"><path fill="none" stroke="#000000" d="M 125.16267485762415 115.79048224398402 L 115 120 L 125.16267485762415 124.20951775601598" stroke-miterlimit="10"/></g><g transform="translate(5,5) scale(1,1)"><g><path fill="none" stroke="none"/><text fill="#000000" stroke="none" font-family="Arial" font-size="13px" font-style="normal" font-weight="normal" text-decoration="none" x="202.60986328125" y="136.5">1 : Afficher Pop Up de l'ajout d'un section</text></g></g><g transform="translate(5,5) scale(1,1)"><path fill="none" stroke="#000000" d="M 115 176 L 523 176" stroke-miterlimit="10"/></g><g transform="translate(5,5) scale(1,1)"><path fill="none" stroke="#000000" d="M 512.8373251423759 180.209517756016 L 523 176 L 512.8373251423758 171.790482243984" stroke-miterlimit="10"/></g><g transform="translate(5,5) scale(1,1)"><g><path fill="none" stroke="none"/><text fill="#000000" stroke="none" font-family="Arial" font-size="13px" font-style="normal" font-weight="normal" text-decoration="none" x="230.044921875" y="172.5">2 : Saisir l'identifiant de section</text></g></g><g transform="translate(5,5) scale(1,1)"><rect fill="#ffffff" stroke="none" x="523" y="176" width="13" height="28"/></g><g transform="translate(5,5) scale(1,1)"><path fill="none" stroke="#000000" d="M 523 176 L 536 176 L 536 204 L 523 204 L 523 176 Z Z" stroke-miterlimit="10"/></g><g transform="translate(5,5) scale(1,1)"><rect fill="#ffffff" stroke="none" x="104" y="296" width="439" height="55"/></g><g transform="translate(5,5) scale(1,1)"><path fill="none" stroke="#000000" d="M 104 296 L 543 296 L 543 351 L 104 351 L 104 296 Z Z" stroke-miterlimit="10"/></g><g transform="translate(5,5) scale(1,1)"><path fill="none" stroke="#000000" d="M 104 296 L 104 318 L 129.1708984375 318 L 140.1708984375 307 L 140.1708984375 296 L 104 296 L 104 296" stroke-miterlimit="10"/></g><g transform="translate(5,5) scale(1,1)"><g><path fill="none" stroke="none"/><text fill="#000000" stroke="none" font-family="Arial" font-size="13px" font-style="normal" font-weight="normal" text-decoration="none" x="286.655029296875" y="330">Ajouter QCU</text></g></g><g transform="translate(5,5) scale(1,1)"><g><path fill="none" stroke="none"/><text fill="#000000" stroke="none" font-family="Arial" font-size="13px" font-style="normal" font-weight="normal" text-decoration="none" x="109" y="313.5">ref</text></g></g><g transform="translate(5,5) scale(1,1)"><rect fill="#ffffff" stroke="none" x="104" y="408" width="440" height="56"/></g><g transform="translate(5,5) scale(1,1)"><path fill="none" stroke="#000000" d="M 104 408 L 544 408 L 544 464 L 104 464 L 104 408 Z Z" stroke-miterlimit="10"/></g><g transform="translate(5,5) scale(1,1)"><path fill="none" stroke="#000000" d="M 104 408 L 104 430 L 129.1708984375 430 L 140.1708984375 419 L 140.1708984375 408 L 104 408 L 104 408" stroke-miterlimit="10"/></g><g transform="translate(5,5) scale(1,1)"><g><path fill="none" stroke="none"/><text fill="#000000" stroke="none" font-family="Arial" font-size="13px" font-style="normal" font-weight="normal" text-decoration="none" x="286.4345703125" y="442.5">Ajouter QCM</text></g></g><g transform="translate(5,5) scale(1,1)"><g><path fill="none" stroke="none"/><text fill="#000000" stroke="none" font-family="Arial" font-size="13px" font-style="normal" font-weight="normal" text-decoration="none" x="109" y="425.5">ref</text></g></g><g transform="translate(5,5) scale(1,1)"><rect fill="#ffffff" stroke="none" x="104" y="512" width="439" height="55"/></g><g transform="translate(5,5) scale(1,1)"><path fill="none" stroke="#000000" d="M 104 512 L 543 512 L 543 567 L 104 567 L 104 512 Z Z" stroke-miterlimit="10"/></g><g transform="translate(5,5) scale(1,1)"><path fill="none" stroke="#000000" d="M 104 512 L 104 534 L 129.1708984375 534 L 140.1708984375 523 L 140.1708984375 512 L 104 512 L 104 512" stroke-miterlimit="10"/></g><g transform="translate(5,5) scale(1,1)"><g><path fill="none" stroke="none"/><text fill="#000000" stroke="none" font-family="Arial" font-size="13px" font-style="normal" font-weight="normal" text-decoration="none" x="258.82373046875" y="546">Ajouter Question Libre</text></g></g><g transform="translate(5,5) scale(1,1)"><g><path fill="none" stroke="none"/><text fill="#000000" stroke="none" font-family="Arial" font-size="13px" font-style="normal" font-weight="normal" text-decoration="none" x="109" y="529.5">ref</text></g></g><g transform="translate(5,5) scale(1,1)"><rect fill="#ffffff" stroke="none" x="104" y="768" width="439" height="49"/></g><g transform="translate(5,5) scale(1,1)"><path fill="none" stroke="#000000" d="M 104 768 L 543 768 L 543 817 L 104 817 L 104 768 Z Z" stroke-miterlimit="10"/></g><g transform="translate(5,5) scale(1,1)"><path fill="none" stroke="#000000" d="M 104 768 L 104 790 L 129.1708984375 790 L 140.1708984375 779 L 140.1708984375 768 L 104 768 L 104 768" stroke-miterlimit="10"/></g><g transform="translate(5,5) scale(1,1)"><g><path fill="none" stroke="none"/><text fill="#000000" stroke="none" font-family="Arial" font-size="13px" font-style="normal" font-weight="normal" text-decoration="none" x="273.0361328125" y="799">Editer Projet Vide</text></g></g><g transform="translate(5,5) scale(1,1)"><g><path fill="none" stroke="none"/><text fill="#000000" stroke="none" font-family="Arial" font-size="13px" font-style="normal" font-weight="normal" text-decoration="none" x="109" y="785.5">ref</text></g></g><g transform="translate(5,5) scale(1,1)"><path fill="none" stroke="#000000" d="M 115 232 L 523 232" stroke-miterlimit="10"/></g><g transform="translate(5,5) scale(1,1)"><path fill="none" stroke="#000000" d="M 512.8373251423759 236.209517756016 L 523 232 L 512.8373251423758 227.790482243984" stroke-miterlimit="10"/></g><g transform="translate(5,5) scale(1,1)"><g><path fill="none" stroke="none"/><text fill="#000000" stroke="none" font-family="Arial" font-size="13px" font-style="normal" font-weight="normal" text-decoration="none" x="228.47998046875" y="228.5">3 : Selectionner type de section</text></g></g><g transform="translate(5,5) scale(1,1)"><rect fill="#ffffff" stroke="none" x="523" y="232" width="13" height="28"/></g><g transform="translate(5,5) scale(1,1)"><path fill="none" stroke="#000000" d="M 523 232 L 536 232 L 536 260 L 523 260 L 523 232 Z Z" stroke-miterlimit="10"/></g><g transform="translate(5,5) scale(1,1)"><path fill="none" stroke="#000000" d="M 115 744 L 523 744" stroke-miterlimit="10"/></g><g transform="translate(5,5) scale(1,1)"><path fill="none" stroke="#000000" d="M 512.8373251423759 748.209517756016 L 523 744 L 512.8373251423758 739.790482243984" stroke-miterlimit="10"/></g><g transform="translate(5,5) scale(1,1)"><g><path fill="none" stroke="none"/><text fill="#000000" stroke="none" font-family="Arial" font-size="13px" font-style="normal" font-weight="normal" text-decoration="none" x="256.5" y="740.5">4 : Cliquer sur Ajouter</text></g></g><g transform="translate(5,5) scale(1,1)"><rect fill="#ffffff" stroke="none" x="523" y="744" width="13" height="59"/></g><g transform="translate(5,5) scale(1,1)"><path fill="none" stroke="#000000" d="M 523 744 L 536 744 L 536 803 L 523 803 L 523 744 Z Z" stroke-miterlimit="10"/></g><g transform="translate(5,5) scale(1,1)"><rect fill="#ffffff" stroke="none" x="112" y="608" width="431" height="49"/></g><g transform="translate(5,5) scale(1,1)"><path fill="none" stroke="#000000" d="M 112 608 L 543 608 L 543 657 L 112 657 L 112 608 Z Z" stroke-miterlimit="10"/></g><g transform="translate(5,5) scale(1,1)"><path fill="none" stroke="#000000" d="M 112 608 L 112 630 L 137.1708984375 630 L 148.1708984375 619 L 148.1708984375 608 L 112 608 L 112 608" stroke-miterlimit="10"/></g><g transform="translate(5,5) scale(1,1)"><g><path fill="none" stroke="none"/><text fill="#000000" stroke="none" font-family="Arial" font-size="13px" font-style="normal" font-weight="normal" text-decoration="none" x="272.58642578125" y="639">Ajouter Description</text></g></g><g transform="translate(5,5) scale(1,1)"><g><path fill="none" stroke="none"/><text fill="#000000" stroke="none" font-family="Arial" font-size="13px" font-style="normal" font-weight="normal" text-decoration="none" x="117" y="625.5">ref</text></g></g><g transform="translate(5,5) scale(1,1)"><rect fill="#ffffff" stroke="none" x="104" y="896" width="439" height="49"/></g><g transform="translate(5,5) scale(1,1)"><path fill="none" stroke="#000000" d="M 104 896 L 543 896 L 543 945 L 104 945 L 104 896 Z Z" stroke-miterlimit="10"/></g><g transform="translate(5,5) scale(1,1)"><path fill="none" stroke="#000000" d="M 104 896 L 104 918 L 129.1708984375 918 L 140.1708984375 907 L 140.1708984375 896 L 104 896 L 104 896" stroke-miterlimit="10"/></g><g transform="translate(5,5) scale(1,1)"><g><path fill="none" stroke="none"/><text fill="#000000" stroke="none" font-family="Arial" font-size="13px" font-style="normal" font-weight="normal" text-decoration="none" x="273.0361328125" y="927">Editer Projet Vide</text></g></g><g transform="translate(5,5) scale(1,1)"><g><path fill="none" stroke="none"/><text fill="#000000" stroke="none" font-family="Arial" font-size="13px" font-style="normal" font-weight="normal" text-decoration="none" x="109" y="913.5">ref</text></g></g><g transform="translate(5,5) scale(1,1)"><path fill="none" stroke="#000000" d="M 115 880 L 523 880" stroke-miterlimit="10"/></g><g transform="translate(5,5) scale(1,1)"><path fill="none" stroke="#000000" d="M 512.8373251423759 884.209517756016 L 523 880 L 512.8373251423758 875.790482243984" stroke-miterlimit="10"/></g><g transform="translate(5,5) scale(1,1)"><g><path fill="none" stroke="none"/><text fill="#000000" stroke="none" font-family="Arial" font-size="13px" font-style="normal" font-weight="normal" text-decoration="none" x="255.5" y="876.5">6 : Cliquer sur annuler</text></g></g><g transform="translate(5,5) scale(1,1)"><rect fill="#ffffff" stroke="none" x="523" y="880" width="13" height="28"/></g><g transform="translate(5,5) scale(1,1)"><path fill="none" stroke="#000000" d="M 523 880 L 536 880 L 536 908 L 523 908 L 523 880 Z Z" stroke-miterlimit="10"/></g><g transform="translate(5,5) scale(1,1)"><path fill="none" stroke="#000000" d="M 536 752 L 566 752 L 566 772 L 543 772" stroke-miterlimit="10"/></g><g transform="translate(5,5) scale(1,1)"><path fill="#000000" stroke="none" d="M 553.1626748576241 767.790482243984 L 543 772 L 553.1626748576241 776.209517756016"/></g><g transform="translate(5,5) scale(1,1)"><path fill="none" stroke="#000000" d="M 553.1626748576241 767.790482243984 L 543 772 L 553.1626748576241 776.209517756016 L 553.1626748576241 767.790482243984" stroke-miterlimit="10"/></g><g transform="translate(5,5) scale(1,1)"><g><path fill="none" stroke="none"/><text fill="#000000" stroke="none" font-family="Arial" font-size="13px" font-style="normal" font-weight="normal" text-decoration="none" x="565.5" y="772.5">5 : Sauvegarder dans la base de donnée</text></g></g><g transform="translate(5,5) scale(1,1)"><rect fill="#ffffff" stroke="none" x="530" y="772" width="13" height="28"/></g><g transform="translate(5,5) scale(1,1)"><path fill="none" stroke="#000000" d="M 530 772 L 543 772 L 543 800 L 530 800 L 530 772 Z Z" stroke-miterlimit="10"/></g></g></svg>