<svg version="1.1" xmlns="http://www.w3.org/2000/svg" xmlns:xlink="http://www.w3.org/1999/xlink" width="707" height="308"><defs/><g><text fill="#eeeeee" stroke="none" font-family="Arial" font-size="24px" font-style="normal" font-weight="normal" text-decoration="none" x="0" y="0"></text><text fill="#eeeeee" stroke="none" font-family="Arial" font-size="24px" font-style="normal" font-weight="normal" text-decoration="none" x="0" y="30"></text><text fill="#eeeeee" stroke="none" font-family="Arial" font-size="24px" font-style="normal" font-weight="normal" text-decoration="none" x="0" y="60"></text><text fill="#eeeeee" stroke="none" font-family="Arial" font-size="24px" font-style="normal" font-weight="normal" text-decoration="none" x="0" y="90"></text><text fill="#eeeeee" stroke="none" font-family="Arial" font-size="24px" font-style="normal" font-weight="normal" text-decoration="none" x="0" y="120"></text><text fill="#eeeeee" stroke="none" font-family="Arial" font-size="24px" font-style="normal" font-weight="normal" text-decoration="none" x="0" y="150"></text><text fill="#eeeeee" stroke="none" font-family="Arial" font-size="24px" font-style="normal" font-weight="normal" text-decoration="none" x="0" y="180"></text><text fill="#eeeeee" stroke="none" font-family="Arial" font-size="24px" font-style="normal" font-weight="normal" text-decoration="none" x="0" y="210"></text><text fill="#eeeeee" stroke="none" font-family="Arial" font-size="24px" font-style="normal" font-weight="normal" text-decoration="none" x="0" y="240"></text><text fill="#eeeeee" stroke="none" font-family="Arial" font-size="24px" font-style="normal" font-weight="normal" text-decoration="none" x="0" y="270"></text><text fill="#eeeeee" stroke="none" font-family="Arial" font-size="24px" font-style="normal" font-weight="normal" text-decoration="none" x="0" y="300"></text><text fill="#eeeeee" stroke="none" font-family="Arial" font-size="24px" font-style="normal" font-weight="normal" text-decoration="none" x="200" y="0"></text><text fill="#eeeeee" stroke="none" font-family="Arial" font-size="24px" font-style="normal" font-weight="normal" text-decoration="none" x="200" y="30"></text><text fill="#eeeeee" stroke="none" font-family="Arial" font-size="24px" font-style="normal" font-weight="normal" text-decoration="none" x="200" y="60"></text><text fill="#eeeeee" stroke="none" font-family="Arial" font-size="24px" font-style="normal" font-weight="normal" text-decoration="none" x="200" y="90"></text><text fill="#eeeeee" stroke="none" font-family="Arial" font-size="24px" font-style="normal" font-weight="normal" text-decoration="none" x="200" y="120"></text><text fill="#eeeeee" stroke="none" font-family="Arial" font-size="24px" font-style="normal" font-weight="normal" text-decoration="none" x="200" y="150"></text><text fill="#eeeeee" stroke="none" font-family="Arial" font-size="24px" font-style="normal" font-weight="normal" text-decoration="none" x="200" y="180"></text><text fill="#eeeeee" stroke="none" font-family="Arial" font-size="24px" font-style="normal" font-weight="normal" text-decoration="none" x="200" y="210"></text><text fill="#eeeeee" stroke="none" font-family="Arial" font-size="24px" font-style="normal" font-weight="normal" text-decoration="none" x="200" y="240"></text><text fill="#eeeeee" stroke="none" font-family="Arial" font-size="24px" font-style="normal" font-weight="normal" text-decoration="none" x="200" y="270"></text><text fill="#eeeeee" stroke="none" font-family="Arial" font-size="24px" font-style="normal" font-weight="normal" text-decoration="none" x="200" y="300"></text><text fill="#eeeeee" stroke="none" font-family="Arial" font-size="24px" font-style="normal" font-weight="normal" text-decoration="none" x="400" y="0"></text><text fill="#eeeeee" stroke="none" font-family="Arial" font-size="24px" font-style="normal" font-weight="normal" text-decoration="none" x="400" y="30"></text><text fill="#eeeeee" stroke="none" font-family="Arial" font-size="24px" font-style="normal" font-weight="normal" text-decoration="none" x="400" y="60"></text><text fill="#eeeeee" stroke="none" font-family="Arial" font-size="24px" font-style="normal" font-weight="normal" text-decoration="none" x="400" y="90"></text><text fill="#eeeeee" stroke="none" font-family="Arial" font-size="24px" font-style="normal" font-weight="normal" text-decoration="none" x="400" y="120"></text><text fill="#eeeeee" stroke="none" font-family="Arial" font-size="24px" font-style="normal" font-weight="normal" text-decoration="none" x="400" y="150"></text><text fill="#eeeeee" stroke="none" font-family="Arial" font-size="24px" font-style="normal" font-weight="normal" text-decoration="none" x="400" y="180"></text><text fill="#eeeeee" stroke="none" font-family="Arial" font-size="24px" font-style="normal" font-weight="normal" text-decoration="none" x="400" y="210"></text><text fill="#eeeeee" stroke="none" font-family="Arial" font-size="24px" font-style="normal" font-weight="normal" text-decoration="none" x="400" y="240"></text><text fill="#eeeeee" stroke="none" font-family="Arial" font-size="24px" font-style="normal" font-weight="normal" text-decoration="none" x="400" y="270"></text><text fill="#eeeeee" stroke="none" font-family="Arial" font-size="24px" font-style="normal" font-weight="normal" text-decoration="none" x="400" y="300"></text><text fill="#eeeeee" stroke="none" font-family="Arial" font-size="24px" font-style="normal" font-weight="normal" text-decoration="none" x="600" y="0"></text><text fill="#eeeeee" stroke="none" font-family="Arial" font-size="24px" font-style="normal" font-weight="normal" text-decoration="none" x="600" y="30"></text><text fill="#eeeeee" stroke="none" font-family="Arial" font-size="24px" font-style="normal" font-weight="normal" text-decoration="none" x="600" y="60"></text><text fill="#eeeeee" stroke="none" font-family="Arial" font-size="24px" font-style="normal" font-weight="normal" text-decoration="none" x="600" y="90"></text><text fill="#eeeeee" stroke="none" font-family="Arial" font-size="24px" font-style="normal" font-weight="normal" text-decoration="none" x="600" y="120"></text><text fill="#eeeeee" stroke="none" font-family="Arial" font-size="24px" font-style="normal" font-weight="normal" text-decoration="none" x="600" y="150"></text><text fill="#eeeeee" stroke="none" font-family="Arial" font-size="24px" font-style="normal" font-weight="normal" text-decoration="none" x="600" y="180"></text><text fill="#eeeeee" stroke="none" font-family="Arial" font-size="24px" font-style="normal" font-weight="normal" text-decoration="none" x="600" y="210"></text><text fill="#eeeeee" stroke="none" font-family="Arial" font-size="24px" font-style="normal" font-weight="normal" text-decoration="none" x="600" y="240"></text><text fill="#eeeeee" stroke="none" font-family="Arial" font-size="24px" font-style="normal" font-weight="normal" text-decoration="none" x="600" y="270"></text><text fill="#eeeeee" stroke="none" font-family="Arial" font-size="24px" font-style="normal" font-weight="normal" text-decoration="none" x="600" y="300"></text><g transform="translate(-62,-30) scale(1,1)"><rect fill="#C0C0C0" stroke="none" x="175" y="47" width="591" height="288" opacity="0.2"/></g><g transform="translate(-62,-30) scale(1,1)"><rect fill="#ffffff" stroke="none" x="168" y="40" width="591" height="288"/></g><g transform="translate(-62,-30) scale(1,1)"><path fill="none" stroke="#000000" d="M 168 40 L 759 40 L 759 328 L 168 328 L 168 40 Z Z" stroke-miterlimit="10"/></g><g transform="translate(-62,-30) scale(1,1)"><g><path fill="none" stroke="none"/><text fill="#000000" stroke="none" font-family="Arial" font-size="13px" font-style="normal" font-weight="bold" text-decoration="none" x="425.214111328125" y="59.5">AMC ENSEA</text></g></g><g transform="translate(-62,-30) scale(1,1)"><path fill="#ffffff" stroke="none" d="M 102.85344211647727 177.68 C 102.85344211647727 172.886167936 106.73928444142273 169 111.53271484375 169 C 116.32614524607727 169 120.21198757102273 172.886167936 120.21198757102273 177.68 C 120.21198757102273 182.47383206400002 116.32614524607727 186.36 111.53271484375 186.36 C 106.73928444142273 186.36 102.85344211647727 182.47383206400002 102.85344211647727 177.68 Z"/></g><g transform="translate(-62,-30) scale(1,1)"><path fill="none" stroke="#000000" d="M 102.85344211647727 177.68 C 102.85344211647727 172.886167936 106.73928444142273 169 111.53271484375 169 C 116.32614524607727 169 120.21198757102273 172.886167936 120.21198757102273 177.68 C 120.21198757102273 182.47383206400002 116.32614524607727 186.36 111.53271484375 186.36 C 106.73928444142273 186.36 102.85344211647727 182.47383206400002 102.85344211647727 177.68 Z" stroke-miterlimit="10"/></g><g transform="translate(-62,-30) scale(1,1)"><path fill="none" stroke="#000000" d="M 111.53271484375 186.36 L 111.53271484375 203.64" stroke-miterlimit="10"/></g><g transform="translate(-62,-30) scale(1,1)"><path fill="none" stroke="#000000" d="M 102.34289666193182 192.84 L 120.72253302556818 192.84" stroke-miterlimit="10"/></g><g transform="translate(-62,-30) scale(1,1)"><path fill="none" stroke="#000000" d="M 111.53271484375 203.64 L 98.76907848011363 221" stroke-miterlimit="10"/></g><g transform="translate(-62,-30) scale(1,1)"><path fill="none" stroke="#000000" d="M 111.53271484375 203.64 L 124.29635120738637 221" stroke-miterlimit="10"/></g><g transform="translate(-62,-30) scale(1,1)"><g><path fill="none" stroke="none"/><text fill="#000000" stroke="none" font-family="Arial" font-size="13px" font-style="normal" font-weight="bold" text-decoration="none" x="79.00732421875" y="241.5">Enseignant</text></g></g><g transform="translate(-62,-30) scale(1,1)"><path fill="#C0C0C0" stroke="none" d="M 199 144 C 199 134.6111584 241.9806592 127 295 127 C 348.0193408 127 391 134.6111584 391 144 C 391 153.3888416 348.0193408 161 295 161 C 241.9806592 161 199 153.3888416 199 144 Z" opacity="0.2"/></g><g transform="translate(-62,-30) scale(1,1)"><path fill="#ffffff" stroke="none" d="M 192 137 C 192 127.6111584 234.9806592 120 288 120 C 341.0193408 120 384 127.6111584 384 137 C 384 146.3888416 341.0193408 154 288 154 C 234.9806592 154 192 146.3888416 192 137 Z"/></g><g transform="translate(-62,-30) scale(1,1)"><path fill="none" stroke="#000000" d="M 192 137 C 192 127.6111584 234.9806592 120 288 120 C 341.0193408 120 384 127.6111584 384 137 C 384 146.3888416 341.0193408 154 288 154 C 234.9806592 154 192 146.3888416 192 137 Z" stroke-miterlimit="10"/></g><g transform="translate(-62,-30) scale(1,1)"><g><path fill="none" stroke="none"/><text fill="#000000" stroke="none" font-family="Arial" font-size="13px" font-style="normal" font-weight="bold" text-decoration="none" x="226.240478515625" y="144">Créer Des Quiz QCM</text></g></g><g transform="translate(-62,-30) scale(1,1)"><path fill="#C0C0C0" stroke="none" d="M 519 208 C 519 198.6111584 541.6096176 191 569.5 191 C 597.3903824 191 620 198.6111584 620 208 C 620 217.3888416 597.3903824 225 569.5 225 C 541.6096176 225 519 217.3888416 519 208 Z" opacity="0.2"/></g><g transform="translate(-62,-30) scale(1,1)"><path fill="#ffffff" stroke="none" d="M 512 201 C 512 191.6111584 534.6096176 184 562.5 184 C 590.3903824 184 613 191.6111584 613 201 C 613 210.3888416 590.3903824 218 562.5 218 C 534.6096176 218 512 210.3888416 512 201 Z"/></g><g transform="translate(-62,-30) scale(1,1)"><path fill="none" stroke="#000000" d="M 512 201 C 512 191.6111584 534.6096176 184 562.5 184 C 590.3903824 184 613 191.6111584 613 201 C 613 210.3888416 590.3903824 218 562.5 218 C 534.6096176 218 512 210.3888416 512 201 Z" stroke-miterlimit="10"/></g><g transform="translate(-62,-30) scale(1,1)"><g><path fill="none" stroke="none"/><text fill="#000000" stroke="none" font-family="Arial" font-size="13px" font-style="normal" font-weight="bold" text-decoration="none" x="537.9345703125" y="208">Exporter</text></g></g><g transform="translate(-62,-30) scale(1,1)"><path fill="#C0C0C0" stroke="none" d="M 647 104 C 647 94.6111584 669.6096176 87 697.5 87 C 725.3903824 87 748 94.6111584 748 104 C 748 113.3888416 725.3903824 121 697.5 121 C 669.6096176 121 647 113.3888416 647 104 Z" opacity="0.2"/></g><g transform="translate(-62,-30) scale(1,1)"><path fill="#ffffff" stroke="none" d="M 640 97 C 640 87.6111584 662.6096176 80 690.5 80 C 718.3903824 80 741 87.6111584 741 97 C 741 106.3888416 718.3903824 114 690.5 114 C 662.6096176 114 640 106.3888416 640 97 Z"/></g><g transform="translate(-62,-30) scale(1,1)"><path fill="none" stroke="#000000" d="M 640 97 C 640 87.6111584 662.6096176 80 690.5 80 C 718.3903824 80 741 87.6111584 741 97 C 741 106.3888416 718.3903824 114 690.5 114 C 662.6096176 114 640 106.3888416 640 97 Z" stroke-miterlimit="10"/></g><g transform="translate(-62,-30) scale(1,1)"><g><path fill="none" stroke="none"/><text fill="#000000" stroke="none" font-family="Arial" font-size="13px" font-style="normal" font-weight="bold" text-decoration="none" x="674.59912109375" y="104">Latex</text></g></g><g transform="translate(-62,-30) scale(1,1)"><path fill="#C0C0C0" stroke="none" d="M 655 280 C 655 270.6111584 677.6096176 263 705.5 263 C 733.3903824 263 756 270.6111584 756 280 C 756 289.3888416 733.3903824 297 705.5 297 C 677.6096176 297 655 289.3888416 655 280 Z" opacity="0.2"/></g><g transform="translate(-62,-30) scale(1,1)"><path fill="#ffffff" stroke="none" d="M 648 273 C 648 263.6111584 670.6096176 256 698.5 256 C 726.3903824 256 749 263.6111584 749 273 C 749 282.3888416 726.3903824 290 698.5 290 C 670.6096176 290 648 282.3888416 648 273 Z"/></g><g transform="translate(-62,-30) scale(1,1)"><path fill="none" stroke="#000000" d="M 648 273 C 648 263.6111584 670.6096176 256 698.5 256 C 726.3903824 256 749 263.6111584 749 273 C 749 282.3888416 726.3903824 290 698.5 290 C 670.6096176 290 648 282.3888416 648 273 Z" stroke-miterlimit="10"/></g><g transform="translate(-62,-30) scale(1,1)"><g><path fill="none" stroke="none"/><text fill="#000000" stroke="none" font-family="Arial" font-size="13px" font-style="normal" font-weight="bold" text-decoration="none" x="685.5" y="280">PDF</text></g></g><g transform="translate(-62,-30) scale(1,1)"><path fill="#C0C0C0" stroke="none" d="M 199 264 C 199 254.6111584 247.3532416 247 307 247 C 366.6467584 247 415 254.6111584 415 264 C 415 273.3888416 366.6467584 281 307 281 C 247.3532416 281 199 273.3888416 199 264 Z" opacity="0.2"/></g><g transform="translate(-62,-30) scale(1,1)"><path fill="#ffffff" stroke="none" d="M 192 257 C 192 247.6111584 240.3532416 240 300 240 C 359.6467584 240 408 247.6111584 408 257 C 408 266.3888416 359.6467584 274 300 274 C 240.3532416 274 192 266.3888416 192 257 Z"/></g><g transform="translate(-62,-30) scale(1,1)"><path fill="none" stroke="#000000" d="M 192 257 C 192 247.6111584 240.3532416 240 300 240 C 359.6467584 240 408 247.6111584 408 257 C 408 266.3888416 359.6467584 274 300 274 C 240.3532416 274 192 266.3888416 192 257 Z" stroke-miterlimit="10"/></g><g transform="translate(-62,-30) scale(1,1)"><g><path fill="none" stroke="none"/><text fill="#000000" stroke="none" font-family="Arial" font-size="13px" font-style="normal" font-weight="bold" text-decoration="none" x="231.37548828125" y="264">Modifier Des Quiz QCM</text></g></g><g transform="translate(-62,-30) scale(1,1)"><path fill="none" stroke="#000000" d="M 152 191 L 242 155" stroke-miterlimit="10"/></g><g transform="translate(-62,-30) scale(1,1)"><path fill="none" stroke="#000000" d="M 152 218 L 232 239" stroke-miterlimit="10"/></g><g transform="translate(-62,-30) scale(1,1)"><path fill="none" stroke="#000000" d="M 365 155 L 511 189" stroke-miterlimit="10" stroke-dasharray="3"/></g><g transform="translate(-62,-30) scale(1,1)"><path fill="none" stroke="#000000" d="M 500.14741762714084 190.79484145269353 L 511 189 L 502.0569208484114 182.59520997312" stroke-miterlimit="10"/></g><g transform="translate(-62,-30) scale(1,1)"><g><path fill="none" stroke="none"/><text fill="#000000" stroke="none" font-family="Arial" font-size="13px" font-style="normal" font-weight="normal" text-decoration="none" x="417.5" y="148.5">«extend»</text></g></g><g transform="translate(-62,-30) scale(1,1)"><path fill="none" stroke="#000000" d="M 384 239 L 511 212" stroke-miterlimit="10" stroke-dasharray="3"/></g><g transform="translate(-62,-30) scale(1,1)"><path fill="none" stroke="#000000" d="M 501.93486148475165 218.23083170205717 L 511 212 L 500.1841157345158 209.99584243242927" stroke-miterlimit="10"/></g><g transform="translate(-62,-30) scale(1,1)"><g><path fill="none" stroke="none"/><text fill="#000000" stroke="none" font-family="Arial" font-size="13px" font-style="normal" font-weight="normal" text-decoration="none" x="414.5" y="201.5">«extend»</text></g></g><g transform="translate(-62,-30) scale(1,1)"><path fill="none" stroke="#000000" d="M 668 115 L 584 183" stroke-miterlimit="10"/></g><g transform="translate(-62,-30) scale(1,1)"><path fill="#FFFFFF" stroke="none" d="M 594.5005315802493 163.6676737940778 L 584 183 L 605.0950160427758 176.75497813013988"/></g><g transform="translate(-62,-30) scale(1,1)"><path fill="none" stroke="#000000" d="M 594.5005315802493 163.6676737940778 L 584 183 L 605.0950160427758 176.75497813013988 L 594.5005315802493 163.6676737940778" stroke-miterlimit="10"/></g><g transform="translate(-62,-30) scale(1,1)"><path fill="none" stroke="#000000" d="M 664 255 L 596 219" stroke-miterlimit="10"/></g><g transform="translate(-62,-30) scale(1,1)"><path fill="#FFFFFF" stroke="none" d="M 617.9024618077161 221.06933969215652 L 596 219 L 610.0241351400131 235.95062339781782"/></g><g transform="translate(-62,-30) scale(1,1)"><path fill="none" stroke="#000000" d="M 617.9024618077161 221.06933969215652 L 596 219 L 610.0241351400131 235.95062339781782 L 617.9024618077161 221.06933969215652" stroke-miterlimit="10"/></g></g></svg>